<svg xmlns="http://www.w3.org/2000/svg" xmlns:xlink="http://www.w3.org/1999/xlink" viewBox="6205 -307 1000 634.695"><defs><style>.a{fill:url(#a);}.b{fill:url(#b);}</style><linearGradient id="a" x1="0.06" y1="0.84" x2="0.794" y2="0.228" gradientUnits="objectBoundingBox"><stop offset="0" stop-color="#36a9f7"/><stop offset="1" stop-color="#92dcf7"/></linearGradient><linearGradient id="b" x1="0.3" y1="0.815" x2="0.938" y2="0.23" xlink:href="#a"/></defs><g transform="translate(5745 -530)"><path class="a" d="M823.554,725.544H176.424C79.147,725.544,0,646.4,0,549.12c0-94.78,75.106-172.341,168.939-176.259a241.307,241.307,0,0,1-3.279-39.677c0-133.633,108.7-242.334,242.334-242.334a241.788,241.788,0,0,1,199.251,104.5,187.663,187.663,0,0,1,89.38-22.459c104.718,0,189.931,85.212,189.931,189.953a181.534,181.534,0,0,1-1.238,21.056C953.061,409.321,1000,475.189,1000,549.12,1000,646.4,920.849,725.544,823.554,725.544ZM176.424,425.489a123.631,123.631,0,0,0,0,247.262H823.554A123.78,123.78,0,0,0,947.207,549.12c0-57.886-41.06-108.7-97.607-120.826l-26.707-5.734,6.62-26.478a137.117,137.117,0,0,0,4.248-33.243c0-75.62-61.517-137.159-137.137-137.159a135.978,135.978,0,0,0-82.058,27.469l-24.685,18.5-14.457-27.222A189.283,189.283,0,0,0,407.99,143.643c-104.513,0-189.541,85.028-189.541,189.541a189.309,189.309,0,0,0,9.073,57.846l11.032,34.46Z" transform="translate(460 132.15)"/><path class="b" d="M109.326,47.368v179.1a56.031,56.031,0,0,0-32.956-10.43c-28.556,0-51.788,20.416-51.788,45.511s23.232,45.511,51.788,45.511,51.788-20.416,51.788-45.511V106.05L281.952,68V183.764A56.032,56.032,0,0,0,249,173.334c-28.556,0-51.788,20.416-51.788,45.511S220.44,264.355,249,264.355s51.788-20.416,51.788-45.511V0Z" transform="translate(797.418 449.1)"/></g></svg>